<?xml version="1.0" standalone="no"?>
<!DOCTYPE svg PUBLIC "-//W3C//DTD SVG 20010904//EN"
 "http://www.w3.org/TR/2001/REC-SVG-20010904/DTD/svg10.dtd">
<svg version="1.0" xmlns="http://www.w3.org/2000/svg"
 width="1000.000000pt" height="1000.000000pt" viewBox="0 0 1000.000000 1000.000000"
 preserveAspectRatio="xMidYMid meet">
<metadata>
Created by potrace 1.11, written by Peter Selinger 2001-2013
</metadata>
<g transform="translate(0.000000,1000.000000) scale(0.100000,-0.100000)"
fill="#000000" stroke="none">
<path d="M650 5000 l0 -4350 4350 0 4350 0 0 4350 0 4350 -4350 0 -4350 0 0
-4350z m8530 0 l0 -4180 -4180 0 -4180 0 0 4180 0 4180 4180 0 4180 0 0 -4180z"/>
<path d="M5156 6443 c-29 -95 -695 -2660 -692 -2668 4 -11 326 -88 334 -80 5
4 702 2672 702 2685 0 3 -68 21 -152 39 -84 19 -160 36 -169 38 -10 3 -19 -2
-23 -14z"/>
<path d="M3370 5461 l-575 -259 -3 -184 -2 -183 567 -254 c313 -140 575 -256
584 -258 12 -4 30 29 79 142 36 83 59 150 54 154 -5 4 -217 95 -471 202 -254
106 -460 196 -458 200 2 3 214 95 470 204 256 109 465 202 465 206 0 14 -123
289 -129 289 -3 0 -265 -117 -581 -259z"/>
<path d="M6007 5713 c-12 -19 -128 -286 -125 -288 2 -1 213 -91 470 -201 257
-109 468 -201 468 -204 0 -3 -207 -93 -459 -199 -253 -107 -465 -197 -471
-201 -7 -4 11 -55 51 -146 33 -76 64 -143 69 -148 4 -4 265 107 584 249 l576
258 -2 185 -3 186 -574 258 c-315 142 -575 258 -576 258 -2 0 -6 -3 -8 -7z"/>
</g>
</svg>
