<?xml version="1.0" standalone="no"?>
<!DOCTYPE svg PUBLIC "-//W3C//DTD SVG 20010904//EN"
 "http://www.w3.org/TR/2001/REC-SVG-20010904/DTD/svg10.dtd">
<svg version="1.0" xmlns="http://www.w3.org/2000/svg"
 width="1000.000000pt" height="1000.000000pt" viewBox="0 0 1000.000000 1000.000000"
 preserveAspectRatio="xMidYMid meet">
<metadata>
Created by potrace 1.11, written by Peter Selinger 2001-2013
</metadata>
<g transform="translate(0.000000,1000.000000) scale(0.100000,-0.100000)"
fill="#000000" stroke="none">
<path d="M650 5000 l0 -4350 4350 0 4350 0 0 4350 0 4350 -4350 0 -4350 0 0
-4350z m8530 0 l0 -4180 -4180 0 -4180 0 0 4180 0 4180 4180 0 4180 0 0 -4180z"/>
<path d="M5156 6443 c-49 -164 -695 -2667 -689 -2672 11 -10 325 -82 331 -77
4 4 701 2673 702 2686 0 3 -67 20 -149 38 -82 18 -158 36 -169 39 -14 3 -22
-1 -26 -14z"/>
<path d="M3370 5460 l-575 -259 -3 -177 c-1 -100 2 -182 7 -187 9 -9 1139
-517 1151 -517 3 0 35 66 70 146 50 116 60 148 50 154 -8 5 -220 95 -472 201
-252 106 -458 196 -458 199 0 3 212 95 470 205 259 109 470 202 470 205 0 12
-124 290 -129 290 -3 -1 -265 -118 -581 -260z"/>
<path d="M5991 5678 c-10 -24 -39 -89 -65 -146 l-45 -103 72 -33 c39 -18 251
-109 469 -202 219 -93 398 -172 398 -175 0 -3 -211 -95 -469 -204 -443 -186
-469 -199 -461 -219 28 -72 113 -262 119 -269 5 -5 268 108 585 249 l576 258
-2 184 -3 185 -575 258 c-316 143 -576 259 -577 259 -2 0 -12 -19 -22 -42z"/>
</g>
</svg>
